/* XPM */
static char * east_xpm[] = {
"100 100 12 1",
" 	c None",
".	c #808080",
"+	c #FFFFFF",
"@	c #F7F7F7",
"#	c #B7B7B7",
"$	c #C7C7C7",
"%	c #E8E8E8",
"&	c #F0F0F0",
"*	c #D9D9D9",
"=	c #828282",
"-	c #F8F8F8",
";	c #E0E0E0",
"....................................................................................................",
"....................................................................................................",
"..++++++++++++++++++++++++++++++++++++++++++++++++++++++++++++++++++++++++++++++++++++++++++++++++..",
"..++++++++++++++++++++++++++++++++++++++++++++++++++++++++++++++++++++++++++++++++++++++++++++++++..",
"..++++++++++++++++++++++++++++++++++++++++++++++++++++++++++++++++++++++++++++++++++++++++++++++++..",
"..++++++++++++++++++++++++++++++++++++++++++++++++++++++++++++++++++++++++++++++++++++++++++++++++..",
"..++++++++++++++++++++++++++++++++++++++++++++++++++++++++++++++++++++++++++++++++++++++++++++++++..",
"..++++++++++++++++++++++++++++++++++++++++++++++++++++++++++++++++++++++++++++++++++++++++++++++++..",
"..++++++++++++++++++++++++++++++++++++++++++++++++++++++++++++++++++++++++++++++++++++++++++++++++..",
"..++++++++++++++++++++++++++++++++++++++++++++++++++++++++++++++++++++++++++++++++++++++++++++++++..",
"..++++++++++++++++++++++++++++++++++++++++++++++++++++++++++++++++++++++++++++++++++++++++++++++++..",
"..++++++++++++++++++++++++++++++++++++++++++++++++++++++++++++++++++++++++++++++++++++++++++++++++..",
"..++++++++++++++++++++++++++++++++++++++++++++++++++++++++++++++++++++++++++++++++++++++++++++++++..",
"..++++++++++++++++++++++++++++++++++++++++++++++++++++++++++++++++++++++++++++++++++++++++++++++++..",
"..++++++++++++++++++++++++++++++++++++++++++++++++++++++++++++++++++++++++++++++++++++++++++++++++..",
"..+++++++++++++++++++++@...................................................#++++++++++++++++++++++..",
"..+++++++++++++++++++++@...................................................#++++++++++++++++++++++..",
"..+++++++++++++++++++++@...................................................#++++++++++++++++++++++..",
"..+++++++++++++++++++++@...................................................#++++++++++++++++++++++..",
"..+++++++++++++++++++++@...................................................#++++++++++++++++++++++..",
"..+++++++++++++++++++++@...................................................#++++++++++++++++++++++..",
"..+++++++++++++++++++++@...................................................#++++++++++++++++++++++..",
"..+++++++++++++++++++++@...................................................#++++++++++++++++++++++..",
"..+++++++++++++++++++++@.........$%%%%%%%%%%%%%%%%%%%%%%%%%%%%%%%%%%%%%%%%%&++++++++++++++++++++++..",
"..+++++++++++++++++++++@.........*++++++++++++++++++++++++++++++++++++++++++++++++++++++++++++++++..",
"..+++++++++++++++++++++@.........*++++++++++++++++++++++++++++++++++++++++++++++++++++++++++++++++..",
"..+++++++++++++++++++++@.........*++++++++++++++++++++++++++++++++++++++++++++++++++++++++++++++++..",
"..+++++++++++++++++++++@.........*++++++++++++++++++++++++++++++++++++++++++++++++++++++++++++++++..",
"..+++++++++++++++++++++@.........*++++++++++++++++++++++++++++++++++++++++++++++++++++++++++++++++..",
"..+++++++++++++++++++++@.........*++++++++++++++++++++++++++++++++++++++++++++++++++++++++++++++++..",
"..+++++++++++++++++++++@.........*++++++++++++++++++++++++++++++++++++++++++++++++++++++++++++++++..",
"..+++++++++++++++++++++@.........*++++++++++++++++++++++++++++++++++++++++++++++++++++++++++++++++..",
"..+++++++++++++++++++++@.........*++++++++++++++++++++++++++++++++++++++++++++++++++++++++++++++++..",
"..+++++++++++++++++++++@.........*++++++++++++++++++++++++++++++++++++++++++++++++++++++++++++++++..",
"..+++++++++++++++++++++@.........*++++++++++++++++++++++++++++++++++++++++++++++++++++++++++++++++..",
"..+++++++++++++++++++++@.........*++++++++++++++++++++++++++++++++++++++++++++++++++++++++++++++++..",
"..+++++++++++++++++++++@.........*++++++++++++++++++++++++++++++++++++++++++++++++++++++++++++++++..",
"..+++++++++++++++++++++@.........*++++++++++++++++++++++++++++++++++++++++++++++++++++++++++++++++..",
"..+++++++++++++++++++++@.........*++++++++++++++++++++++++++++++++++++++++++++++++++++++++++++++++..",
"..+++++++++++++++++++++@.........*++++++++++++++++++++++++++++++++++++++++++++++++++++++++++++++++..",
"..+++++++++++++++++++++@.........*++++++++++++++++++++++++++++++++++++++++++++++++++++++++++++++++..",
"..+++++++++++++++++++++@.........*++++++++++++++++++++++++++++++++++++++++++++++++++++++++++++++++..",
"..+++++++++++++++++++++@.........*++++++++++++++++++++++++++++++++++++++++++++++++++++++++++++++++..",
"..+++++++++++++++++++++@.........*++++++++++++++++++++++++++++++++++++++++++++++++++++++++++++++++..",
"..+++++++++++++++++++++@.........*++++++++++++++++++++++++++++++++++++++++++++++++++++++++++++++++..",
"..+++++++++++++++++++++@.........*++++++++++++++++++++++++++++++++++++++++++++++++++++++++++++++++..",
"..+++++++++++++++++++++@................................................=+++++++++++++++++++++++++..",
"..+++++++++++++++++++++@................................................=+++++++++++++++++++++++++..",
"..+++++++++++++++++++++@................................................=+++++++++++++++++++++++++..",
"..+++++++++++++++++++++@................................................=+++++++++++++++++++++++++..",
"..+++++++++++++++++++++@................................................=+++++++++++++++++++++++++..",
"..+++++++++++++++++++++@................................................=+++++++++++++++++++++++++..",
"..+++++++++++++++++++++@................................................=+++++++++++++++++++++++++..",
"..+++++++++++++++++++++@................................................=+++++++++++++++++++++++++..",
"..+++++++++++++++++++++@.........$%%%%%%%%%%%%%%%%%%%%%%%%%%%%%%%%%%%%%%%+++++++++++++++++++++++++..",
"..+++++++++++++++++++++@.........*++++++++++++++++++++++++++++++++++++++++++++++++++++++++++++++++..",
"..+++++++++++++++++++++@.........*++++++++++++++++++++++++++++++++++++++++++++++++++++++++++++++++..",
"..+++++++++++++++++++++@.........*++++++++++++++++++++++++++++++++++++++++++++++++++++++++++++++++..",
"..+++++++++++++++++++++@.........*++++++++++++++++++++++++++++++++++++++++++++++++++++++++++++++++..",
"..+++++++++++++++++++++@.........*++++++++++++++++++++++++++++++++++++++++++++++++++++++++++++++++..",
"..+++++++++++++++++++++@.........*++++++++++++++++++++++++++++++++++++++++++++++++++++++++++++++++..",
"..+++++++++++++++++++++@.........*++++++++++++++++++++++++++++++++++++++++++++++++++++++++++++++++..",
"..+++++++++++++++++++++@.........*++++++++++++++++++++++++++++++++++++++++++++++++++++++++++++++++..",
"..+++++++++++++++++++++@.........*++++++++++++++++++++++++++++++++++++++++++++++++++++++++++++++++..",
"..+++++++++++++++++++++@.........*++++++++++++++++++++++++++++++++++++++++++++++++++++++++++++++++..",
"..+++++++++++++++++++++@.........*++++++++++++++++++++++++++++++++++++++++++++++++++++++++++++++++..",
"..+++++++++++++++++++++@.........*++++++++++++++++++++++++++++++++++++++++++++++++++++++++++++++++..",
"..+++++++++++++++++++++@.........*++++++++++++++++++++++++++++++++++++++++++++++++++++++++++++++++..",
"..+++++++++++++++++++++@.........*++++++++++++++++++++++++++++++++++++++++++++++++++++++++++++++++..",
"..+++++++++++++++++++++@.........*++++++++++++++++++++++++++++++++++++++++++++++++++++++++++++++++..",
"..+++++++++++++++++++++@.........*++++++++++++++++++++++++++++++++++++++++++++++++++++++++++++++++..",
"..+++++++++++++++++++++@.........*++++++++++++++++++++++++++++++++++++++++++++++++++++++++++++++++..",
"..+++++++++++++++++++++@.........*++++++++++++++++++++++++++++++++++++++++++++++++++++++++++++++++..",
"..+++++++++++++++++++++@.........*++++++++++++++++++++++++++++++++++++++++++++++++++++++++++++++++..",
"..+++++++++++++++++++++@.........*++++++++++++++++++++++++++++++++++++++++++++++++++++++++++++++++..",
"..+++++++++++++++++++++@.........*++++++++++++++++++++++++++++++++++++++++++++++++++++++++++++++++..",
"..+++++++++++++++++++++@.........*++++++++++++++++++++++++++++++++++++++++++++++++++++++++++++++++..",
"..+++++++++++++++++++++@.........*++++++++++++++++++++++++++++++++++++++++++++++++++++++++++++++++..",
"..+++++++++++++++++++++@.........$%%%%%%%%%%%%%%%%%%%%%%%%%%%%%%%%%%%%%%%%%%%-++++++++++++++++++++..",
"..+++++++++++++++++++++@.....................................................;++++++++++++++++++++..",
"..+++++++++++++++++++++@.....................................................;++++++++++++++++++++..",
"..+++++++++++++++++++++@.....................................................;++++++++++++++++++++..",
"..+++++++++++++++++++++@.....................................................;++++++++++++++++++++..",
"..+++++++++++++++++++++@.....................................................;++++++++++++++++++++..",
"..+++++++++++++++++++++@.....................................................;++++++++++++++++++++..",
"..+++++++++++++++++++++@.....................................................;++++++++++++++++++++..",
"..+++++++++++++++++++++@.....................................................;++++++++++++++++++++..",
"..++++++++++++++++++++++++++++++++++++++++++++++++++++++++++++++++++++++++++++++++++++++++++++++++..",
"..++++++++++++++++++++++++++++++++++++++++++++++++++++++++++++++++++++++++++++++++++++++++++++++++..",
"..++++++++++++++++++++++++++++++++++++++++++++++++++++++++++++++++++++++++++++++++++++++++++++++++..",
"..++++++++++++++++++++++++++++++++++++++++++++++++++++++++++++++++++++++++++++++++++++++++++++++++..",
"..++++++++++++++++++++++++++++++++++++++++++++++++++++++++++++++++++++++++++++++++++++++++++++++++..",
"..++++++++++++++++++++++++++++++++++++++++++++++++++++++++++++++++++++++++++++++++++++++++++++++++..",
"..++++++++++++++++++++++++++++++++++++++++++++++++++++++++++++++++++++++++++++++++++++++++++++++++..",
"..++++++++++++++++++++++++++++++++++++++++++++++++++++++++++++++++++++++++++++++++++++++++++++++++..",
"..++++++++++++++++++++++++++++++++++++++++++++++++++++++++++++++++++++++++++++++++++++++++++++++++..",
"..++++++++++++++++++++++++++++++++++++++++++++++++++++++++++++++++++++++++++++++++++++++++++++++++..",
"..++++++++++++++++++++++++++++++++++++++++++++++++++++++++++++++++++++++++++++++++++++++++++++++++..",
"....................................................................................................",
"...................................................................................................."};
