/* XPM */
static char * C:\Users\aymer\Documents\42\image_cub3d\north_xpm[] = {
"100 100 54 1",
" 	c None",
".	c #808080",
"+	c #FFFFFF",
"@	c #DBDBDB",
"#	c #B8B8B8",
"$	c #F9F9F9",
"%	c #FEFEFE",
"&	c #E0E0E0",
"*	c #919191",
"=	c #B9B9B9",
"-	c #E1E1E1",
";	c #929292",
">	c #BABABA",
",	c #E2E2E2",
"'	c #939393",
")	c #BBBBBB",
"!	c #949494",
"~	c #818181",
"{	c #B2B2B2",
"]	c #C2C2C2",
"^	c #FBFBFB",
"/	c #989898",
"(	c #E7E7E7",
"_	c #BCBCBC",
":	c #C1C1C1",
"<	c #E3E3E3",
"[	c #979797",
"}	c #E6E6E6",
"|	c #BDBDBD",
"1	c #C0C0C0",
"2	c #E4E4E4",
"3	c #FAFAFA",
"4	c #969696",
"5	c #959595",
"6	c #E5E5E5",
"7	c #BFBFBF",
"8	c #BEBEBE",
"9	c #F8F8F8",
"0	c #909090",
"a	c #999999",
"b	c #DFDFDF",
"c	c #B7B7B7",
"d	c #DEDEDE",
"e	c #B6B6B6",
"f	c #F7F7F7",
"g	c #8F8F8F",
"h	c #B5B5B5",
"i	c #DDDDDD",
"j	c #B4B4B4",
"k	c #8E8E8E",
"l	c #DCDCDC",
"m	c #B3B3B3",
"n	c #F6F6F6",
"o	c #8D8D8D",
"....................................................................................................",
"....................................................................................................",
"..++++++++++++++++++++++++++++++++++++++++++++++++++++++++++++++++++++++++++++++++++++++++++++++++..",
"..++++++++++++++++++++++++++++++++++++++++++++++++++++++++++++++++++++++++++++++++++++++++++++++++..",
"..++++++++++++++++++++++++++++++++++++++++++++++++++++++++++++++++++++++++++++++++++++++++++++++++..",
"..++++++++++++++++++++++++++++++++++++++++++++++++++++++++++++++++++++++++++++++++++++++++++++++++..",
"..++++++++++++++++++++++++++++++++++++++++++++++++++++++++++++++++++++++++++++++++++++++++++++++++..",
"..++++++++++++++++++++++++++++++++++++++++++++++++++++++++++++++++++++++++++++++++++++++++++++++++..",
"..++++++++++++++++++++++++++++++++++++++++++++++++++++++++++++++++++++++++++++++++++++++++++++++++..",
"..++++++++++++++++++++++++++++++++++++++++++++++++++++++++++++++++++++++++++++++++++++++++++++++++..",
"..++++++++++++++++++++++++++++++++++++++++++++++++++++++++++++++++++++++++++++++++++++++++++++++++..",
"..++++++++++++++++++++++++++++++++++++++++++++++++++++++++++++++++++++++++++++++++++++++++++++++++..",
"..++++++++++++++++++++++++++++++++++++++++++++++++++++++++++++++++++++++++++++++++++++++++++++++++..",
"..++++++++++++++++++++++++++++++++++++++++++++++++++++++++++++++++++++++++++++++++++++++++++++++++..",
"..+++++++++++++++++++@.........#++++++++++++++++++++++++++++++++++++$.........%+++++++++++++++++++..",
"..+++++++++++++++++++@..........&+++++++++++++++++++++++++++++++++++$.........%+++++++++++++++++++..",
"..+++++++++++++++++++@..........*$++++++++++++++++++++++++++++++++++$.........%+++++++++++++++++++..",
"..+++++++++++++++++++@...........=++++++++++++++++++++++++++++++++++$.........%+++++++++++++++++++..",
"..+++++++++++++++++++@............-+++++++++++++++++++++++++++++++++$.........%+++++++++++++++++++..",
"..+++++++++++++++++++@............;$++++++++++++++++++++++++++++++++$.........%+++++++++++++++++++..",
"..+++++++++++++++++++@.............>++++++++++++++++++++++++++++++++$.........%+++++++++++++++++++..",
"..+++++++++++++++++++@..............-+++++++++++++++++++++++++++++++$.........%+++++++++++++++++++..",
"..+++++++++++++++++++@..............;$++++++++++++++++++++++++++++++$.........%+++++++++++++++++++..",
"..+++++++++++++++++++@...............>++++++++++++++++++++++++++++++$.........%+++++++++++++++++++..",
"..+++++++++++++++++++@................,+++++++++++++++++++++++++++++$.........%+++++++++++++++++++..",
"..+++++++++++++++++++@................'$++++++++++++++++++++++++++++$.........%+++++++++++++++++++..",
"..+++++++++++++++++++@.................)++++++++++++++++++++++++++++$.........%+++++++++++++++++++..",
"..+++++++++++++++++++@..................,+++++++++++++++++++++++++++$.........%+++++++++++++++++++..",
"..+++++++++++++++++++@..................'$++++++++++++++++++++++++++$.........%+++++++++++++++++++..",
"..+++++++++++++++++++@........!~.........)++++++++++++++++++++++++++$.........%+++++++++++++++++++..",
"..+++++++++++++++++++@........{]..........,+++++++++++++++++++++++++$.........%+++++++++++++++++++..",
"..+++++++++++++++++++@........{^/.........'$++++++++++++++++++++++++$.........%+++++++++++++++++++..",
"..+++++++++++++++++++@........{+(~........._++++++++++++++++++++++++$.........%+++++++++++++++++++..",
"..+++++++++++++++++++@........{++:..........<+++++++++++++++++++++++$.........%+++++++++++++++++++..",
"..+++++++++++++++++++@........{++^[.........!$++++++++++++++++++++++$.........%+++++++++++++++++++..",
"..+++++++++++++++++++@........{+++}.........._++++++++++++++++++++++$.........%+++++++++++++++++++..",
"..+++++++++++++++++++@........{++++:..........<+++++++++++++++++++++$.........%+++++++++++++++++++..",
"..+++++++++++++++++++@........{++++^[.........!$++++++++++++++++++++$.........%+++++++++++++++++++..",
"..+++++++++++++++++++@........{+++++}..........|++++++++++++++++++++$.........%+++++++++++++++++++..",
"..+++++++++++++++++++@........{++++++1..........2+++++++++++++++++++$.........%+++++++++++++++++++..",
"..+++++++++++++++++++@........{++++++34.........5$++++++++++++++++++$.........%+++++++++++++++++++..",
"..+++++++++++++++++++@........{+++++++6..........|++++++++++++++++++$.........%+++++++++++++++++++..",
"..+++++++++++++++++++@........{++++++++7..........2+++++++++++++++++$.........%+++++++++++++++++++..",
"..+++++++++++++++++++@........{++++++++35.........53++++++++++++++++$.........%+++++++++++++++++++..",
"..+++++++++++++++++++@........{+++++++++2..........8++++++++++++++++$.........%+++++++++++++++++++..",
"..+++++++++++++++++++@........{++++++++++8..........2+++++++++++++++$.........%+++++++++++++++++++..",
"..+++++++++++++++++++@........{++++++++++35.........53++++++++++++++$.........%+++++++++++++++++++..",
"..+++++++++++++++++++@........{+++++++++++2..........8++++++++++++++$.........%+++++++++++++++++++..",
"..+++++++++++++++++++@........{++++++++++++|..........6+++++++++++++$.........%+++++++++++++++++++..",
"..+++++++++++++++++++@........{++++++++++++$!.........43++++++++++++$.........%+++++++++++++++++++..",
"..+++++++++++++++++++@........{+++++++++++++<..........7++++++++++++$.........%+++++++++++++++++++..",
"..+++++++++++++++++++@........{++++++++++++++_..........6+++++++++++$.........%+++++++++++++++++++..",
"..+++++++++++++++++++@........{++++++++++++++$'.........43++++++++++$.........%+++++++++++++++++++..",
"..+++++++++++++++++++@........{+++++++++++++++,..........7++++++++++$.........%+++++++++++++++++++..",
"..+++++++++++++++++++@........{++++++++++++++++)..........}+++++++++$.........%+++++++++++++++++++..",
"..+++++++++++++++++++@........{++++++++++++++++$'.........[^++++++++$.........%+++++++++++++++++++..",
"..+++++++++++++++++++@........{+++++++++++++++++,..........1++++++++$.........%+++++++++++++++++++..",
"..+++++++++++++++++++@........{++++++++++++++++++)..........}+++++++$.........%+++++++++++++++++++..",
"..+++++++++++++++++++@........{++++++++++++++++++$'.........[^++++++$.........%+++++++++++++++++++..",
"..+++++++++++++++++++@........{+++++++++++++++++++-..........1++++++$.........%+++++++++++++++++++..",
"..+++++++++++++++++++@........{++++++++++++++++++++>..........}+++++$.........%+++++++++++++++++++..",
"..+++++++++++++++++++@........{++++++++++++++++++++$;.........[^++++$.........%+++++++++++++++++++..",
"..+++++++++++++++++++@........{+++++++++++++++++++++&..........:++++$.........%+++++++++++++++++++..",
"..+++++++++++++++++++@........{++++++++++++++++++++++=.........~(+++$.........%+++++++++++++++++++..",
"..+++++++++++++++++++@........{++++++++++++++++++++++9*........./^++$.........%+++++++++++++++++++..",
"..+++++++++++++++++++@........{+++++++++++++++++++++++&..........]++$.........%+++++++++++++++++++..",
"..+++++++++++++++++++@........{++++++++++++++++++++++++#.........~(+$.........%+++++++++++++++++++..",
"..+++++++++++++++++++@........{++++++++++++++++++++++++90.........a^$.........%+++++++++++++++++++..",
"..+++++++++++++++++++@........{+++++++++++++++++++++++++b..........]$.........%+++++++++++++++++++..",
"..+++++++++++++++++++@........{++++++++++++++++++++++++++c.........~-.........%+++++++++++++++++++..",
"..+++++++++++++++++++@........{++++++++++++++++++++++++++90.........'.........%+++++++++++++++++++..",
"..+++++++++++++++++++@........{+++++++++++++++++++++++++++d...................%+++++++++++++++++++..",
"..+++++++++++++++++++@........{++++++++++++++++++++++++++++e..................%+++++++++++++++++++..",
"..+++++++++++++++++++@........{++++++++++++++++++++++++++++fg.................%+++++++++++++++++++..",
"..+++++++++++++++++++@........{+++++++++++++++++++++++++++++d.................%+++++++++++++++++++..",
"..+++++++++++++++++++@........{++++++++++++++++++++++++++++++h................%+++++++++++++++++++..",
"..+++++++++++++++++++@........{++++++++++++++++++++++++++++++fg...............%+++++++++++++++++++..",
"..+++++++++++++++++++@........{+++++++++++++++++++++++++++++++i...............%+++++++++++++++++++..",
"..+++++++++++++++++++@........{++++++++++++++++++++++++++++++++j..............%+++++++++++++++++++..",
"..+++++++++++++++++++@........{++++++++++++++++++++++++++++++++fk.............%+++++++++++++++++++..",
"..+++++++++++++++++++@........{+++++++++++++++++++++++++++++++++l.............%+++++++++++++++++++..",
"..+++++++++++++++++++@........{++++++++++++++++++++++++++++++++++m............%+++++++++++++++++++..",
"..+++++++++++++++++++@........{++++++++++++++++++++++++++++++++++no...........%+++++++++++++++++++..",
"..+++++++++++++++++++@........{+++++++++++++++++++++++++++++++++++@...........%+++++++++++++++++++..",
"..+++++++++++++++++++@........{++++++++++++++++++++++++++++++++++++m..........%+++++++++++++++++++..",
"..+++++++++++++++++++@........{++++++++++++++++++++++++++++++++++++no.........%+++++++++++++++++++..",
"..++++++++++++++++++++++++++++++++++++++++++++++++++++++++++++++++++++++++++++++++++++++++++++++++..",
"..++++++++++++++++++++++++++++++++++++++++++++++++++++++++++++++++++++++++++++++++++++++++++++++++..",
"..++++++++++++++++++++++++++++++++++++++++++++++++++++++++++++++++++++++++++++++++++++++++++++++++..",
"..++++++++++++++++++++++++++++++++++++++++++++++++++++++++++++++++++++++++++++++++++++++++++++++++..",
"..++++++++++++++++++++++++++++++++++++++++++++++++++++++++++++++++++++++++++++++++++++++++++++++++..",
"..++++++++++++++++++++++++++++++++++++++++++++++++++++++++++++++++++++++++++++++++++++++++++++++++..",
"..++++++++++++++++++++++++++++++++++++++++++++++++++++++++++++++++++++++++++++++++++++++++++++++++..",
"..++++++++++++++++++++++++++++++++++++++++++++++++++++++++++++++++++++++++++++++++++++++++++++++++..",
"..++++++++++++++++++++++++++++++++++++++++++++++++++++++++++++++++++++++++++++++++++++++++++++++++..",
"..++++++++++++++++++++++++++++++++++++++++++++++++++++++++++++++++++++++++++++++++++++++++++++++++..",
"..++++++++++++++++++++++++++++++++++++++++++++++++++++++++++++++++++++++++++++++++++++++++++++++++..",
"..++++++++++++++++++++++++++++++++++++++++++++++++++++++++++++++++++++++++++++++++++++++++++++++++..",
"....................................................................................................",
"...................................................................................................."};
